<svg xmlns="http://www.w3.org/2000/svg" width="1323.198" height="140.292" viewBox="0 0 1323.198 140.292">
  <g id="グループ_1535" data-name="グループ 1535" transform="translate(-266.699 -3096.447)">
    <line id="線_12" data-name="線 12" x2="1323.198" transform="translate(266.699 3236.239)" fill="none" stroke="#c2c2c2" stroke-width="1"/>
    <g id="グループ_25" data-name="グループ 25" transform="translate(613.159 3096.447)">
      <path id="パス_7" data-name="パス 7" d="M113.9,264.514c-5.192,10.441-10.315,18.4-16.486,23.939q8.148.005,16.295.01c2.662-7.1,5.368-15.344,7.068-21.662Z" transform="translate(7.882 -148.672)" fill="#e9e9e9"/>
      <path id="パス_8" data-name="パス 8" d="M207.194,199.182a10.648,10.648,0,0,0,10.416-10.646c0-6.41-4.465-10.988-10.188-10.988a10.756,10.756,0,0,0-10.876,10.634c0,.119,0,.236,0,.354A11.01,11.01,0,0,0,207.194,199.182Z" transform="translate(23.05 -161.98)" fill="#e9e9e9"/>
      <path id="パス_9" data-name="パス 9" d="M26.578,244.112c0-32.738,19.46-63.073,56.089-63.073,24.611,0,36.286,10.188,41.666,32.28l6.987-1.946c-1.259-11.446-2.746-20.146-4.235-32.738-6.181-1.259-20.6-5.952-38.118-5.952-47.621,0-82.873,30.22-82.873,76.12,0,19.144,7.478,39.448,23.393,53.536q11.719.042,23.436.068C36.843,291.029,26.578,270.344,26.578,244.112Z" transform="translate(-6.093 -162.724)" fill="#e9e9e9"/>
      <path id="パス_10" data-name="パス 10" d="M217.443,212.493c-8.928,4.235-18.429,6.869-29.532,8.929v5.607c13.851,1.832,14.309,2.748,14.309,15.912v44.871a53.284,53.284,0,0,1-.48,8.527l16.147-.029a56.225,56.225,0,0,1-.444-8.5Z" transform="translate(21.729 -156.633)" fill="#e9e9e9"/>
      <path id="パス_11" data-name="パス 11" d="M561.252,283.6c0-14.882-11.446-22.665-27.586-29.3-9.387-3.549-18.429-8.471-18.429-18.663,0-8.928,5.724-15.568,14.422-15.568,10.416,0,17.628,8.356,21.634,21.749l6.41-1.712c-.92-5.953-2.976-18.315-5.149-23.237a46.923,46.923,0,0,0-19.115-3.777c-19.689,0-32.508,12.706-32.508,27.586,0,16.6,13.163,23.237,27.586,29.762C538.59,275.36,545.8,280.4,545.8,290.011a15.68,15.68,0,0,1-1.088,5.762q6.871.016,13.743.033A26.976,26.976,0,0,0,561.252,283.6Z" transform="translate(69.628 -156.542)" fill="#e9e9e9"/>
      <path id="パス_12" data-name="パス 12" d="M504.207,270.569l-6.754,1.031a114.014,114.014,0,0,0,1.373,15.3l12.81.013A46.024,46.024,0,0,1,504.207,270.569Z" transform="translate(69.096 -147.746)" fill="#e9e9e9"/>
      <path id="パス_13" data-name="パス 13" d="M461.8,228.121h24.038c2.746-1.946,3.434-6.753,1.259-8.928H461.8V190.117l-3.2-.459-11.9,14.194V219.19H436.271l-5.953,6.411.919,2.518h15.454v63.3a45.578,45.578,0,0,0,.643,7.846q8.84-.005,17.684,0c-1.922-3.159-3.222-8.019-3.222-15.4Z" transform="translate(58.823 -160.127)" fill="#e9e9e9"/>
      <path id="パス_14" data-name="パス 14" d="M161.794,164.046a150.315,150.315,0,0,1-30.793,7.9v5.724c14.309.8,15.8,1.489,15.8,16.6V295.341a46.734,46.734,0,0,1-.556,8.492q8.037-.005,16.072-.016a48.93,48.93,0,0,1-.521-8.474Z" transform="translate(13.021 -164.046)" fill="#e9e9e9"/>
      <path id="パス_15" data-name="パス 15" d="M420.348,245.917c0-20.833-10.874-32.737-27.815-32.737-6.639,0-12.819,2.976-18.772,6.527-5.5,3.891-10.186,6.865-14.423,10.07V212.494c-8.471,4.464-18.2,7.1-28.617,8.929v5.607c11.9,1.831,13.392,2.748,13.392,16.713v44.185a56.526,56.526,0,0,1-.4,8.037l15.916-.036a74.875,74.875,0,0,1-.3-8.116V237.79c6.869-6.3,15.911-12.136,25.3-12.136,15.568,0,20.6,10.3,20.6,25.527V286.9a54.873,54.873,0,0,1-.512,8.947q7.966-.014,15.931-.028a72.041,72.041,0,0,1-.309-8Z" transform="translate(43.582 -156.632)" fill="#e9e9e9"/>
      <path id="パス_16" data-name="パス 16" d="M259.493,257.274c26.557-.8,54.372-2.976,57.806-3.434,3.779-1.031,4.579-2.518,4.579-7.44,0-17.4-14.422-33.31-32.508-33.31h-.226c-10.757,0-22.432,5.952-31.135,15.681-8.929,9.843-14.08,23.465-14.08,38.346a51.246,51.246,0,0,0,8.54,29.009l26.674-.065C268.575,290.755,259.574,278.417,259.493,257.274Zm24.842-35.715h.228c12.02,0,19.917,9.845,19.917,21.291,0,3.205-1.259,4.465-5.494,4.689-13.393.344-25.984.573-38.691.344C264.3,230.716,274.148,221.559,284.334,221.559Z" transform="translate(30.301 -156.541)" fill="#e9e9e9"/>
      <path id="パス_17" data-name="パス 17" d="M308.894,278.114a50.406,50.406,0,0,1-11.522,7.933l13.044-.032c.753-.807,1.5-1.642,2.255-2.522Z" transform="translate(38.479 -146.591)" fill="#e9e9e9"/>
    </g>
  </g>
</svg>
