<svg xmlns="http://www.w3.org/2000/svg" width="154.155" height="30.251" viewBox="0 0 154.155 30.251">
  <path id="パス_784" data-name="パス 784" d="M12.441-27.07a4.667,4.667,0,0,1,1.914.957q1.23.82-.137,1.914a22.453,22.453,0,0,0-2.6,3.555,40.748,40.748,0,0,0,4.1-.82q.273-.82.82-.957a1.362,1.362,0,0,1,1.367.273,4.625,4.625,0,0,1,1.23,1.094q.41.957-.957.957a22.869,22.869,0,0,1-3.828,2.871,24.34,24.34,0,0,0-2.871,1.5v.684l1.094-.684q1.367-.82,2.461-1.5a3.5,3.5,0,0,1,2.188.547q.547,4.922.684,8.34.137,3.008-1.914,4.1-1.094,0-3.008-3.145l.137-.137a8.225,8.225,0,0,1,1.23.137,1.9,1.9,0,0,1,.82-.137V-9.98q0-4.1-.137-5.605a3.24,3.24,0,0,0-2.461,1.23q2.051,0,1.914.82a4.014,4.014,0,0,1-2.324,3.008,3.1,3.1,0,0,1,1.914.82q.273.41,0,.684a1.685,1.685,0,0,1-.957.273h-.273L12.3-9.023a5.556,5.556,0,0,1-1.367-1.23q-.547-.684.137-.957a1.622,1.622,0,0,0,.957-.957l-.684-1.094a16.089,16.089,0,0,0-1.641,4.1,38.835,38.835,0,0,1-1.23,3.828,2.081,2.081,0,0,1-1.23-2.051A38.47,38.47,0,0,1,9.98-15.176,7.723,7.723,0,0,1,12.3-17.637a16.314,16.314,0,0,0,2.188-2.051A19.721,19.721,0,0,0,9.844-18.32q-1.5.684-1.914.273a9.072,9.072,0,0,1-.957-1.914l4.1-5.469-.137-.684A3.837,3.837,0,0,1,12.441-27.07Zm10.117,1.777a1.716,1.716,0,0,1,.41.684l2.734-.41a2.091,2.091,0,0,1,1.5.684.394.394,0,0,1,.137.273l-.41.41q-.684.273-3.691,1.5-.137.547-.273,1.5-.137.41.41.547,1.5-.41,3.281-.957,1.367-.137,1.5.957,0,.82-1.094,1.094a9.93,9.93,0,0,0-2.461,2.188,12.621,12.621,0,0,0,1.777.137q.684.273.547.684a2.4,2.4,0,0,1-.957.957,18.736,18.736,0,0,0-1.914.957,3.657,3.657,0,0,0-.273,1.367,4.854,4.854,0,0,0-.273,1.777v.82q-.137.41.547.547.82,0,2.461-.137,2.051-1.094,3.418-.273a3.829,3.829,0,0,1,1.777,1.5q.41.82-.957,1.367A13.361,13.361,0,0,0,26.8-6.016a12,12,0,0,1-4.922.82l-1.094-.137q0-.137.82-.273Q25.7-6.7,26.387-7.93q-2.188.137-3.008.137-2.188,0-1.914-3.691l.41-3.145.137-1.641q.273-.957,1.5-.547a9.845,9.845,0,0,0,1.641-2.6,9.434,9.434,0,0,1-3.555.957q-.82,0-.684-1.23.41-3.145.82-5.2Q21.738-25.293,22.559-25.293ZM6.016-2.6q1.777-.273,4.1-.41a5.781,5.781,0,0,1,2.734.957A4.835,4.835,0,0,1,14.219-.684l2.188-.684q4.512-1.23,6.152-1.5a19.927,19.927,0,0,1,3.281-.273,15.493,15.493,0,0,1,5.605.82A2.68,2.68,0,0,1,33.5.41a1.232,1.232,0,0,1-.82,1.094l-3.145.137L26.113,1.5l-.684-.137A3.736,3.736,0,0,0,28.3,0q-.547-1.5-4.238-1.5a17.056,17.056,0,0,0-3.145.547A13.115,13.115,0,0,0,17.09.41Q14.766,1.641,14.082,1.5A3.773,3.773,0,0,1,11.211-.137,2.388,2.388,0,0,0,8.477-1.5,14.538,14.538,0,0,0,6.016-.41,7.189,7.189,0,0,0,4.238.684,6.632,6.632,0,0,1,2.051-2.051,4.566,4.566,0,0,1,4.1-2.461a4.609,4.609,0,0,0,1.23-.82A2.441,2.441,0,0,1,6.016-2.6ZM57.862-26.387q3.691.137,4.375.273a2.383,2.383,0,0,1,1.23.684,2.4,2.4,0,0,1,.273.684l-.137.273a19.938,19.938,0,0,1-3.965,3.965,8.067,8.067,0,0,1,1.5,1.367q.41.82.137.957-2.324,1.641-2.6,2.461a27.006,27.006,0,0,0,4.512-.547,6.359,6.359,0,0,1,2.187-.273q2.188,1.367,2.188,2.188.273.41-.273.41l-3.281,2.188q-2.187,1.23-3.145,1.914.137,1.641.41,5.605.273,4.1-1.094,5.742a5.044,5.044,0,0,1-3.555,1.641,5.382,5.382,0,0,1-4.1-1.5V1.5a1.86,1.86,0,0,0,1.23.273A3.713,3.713,0,0,0,56.631.684a3.036,3.036,0,0,0,1.23-1.777,32.214,32.214,0,0,0,.41-3.281q0-1.777.137-3.281a18.759,18.759,0,0,0-.137-2.324,4.081,4.081,0,0,0-1.094-2.051q-.684-.41,0-.684a3.351,3.351,0,0,1,2.6.547,8.348,8.348,0,0,0,2.461-1.777q.41-.41.273-.547a21.839,21.839,0,0,0-4.922.957,11.532,11.532,0,0,1-2.6.82q-.684-.137-1.094-1.23a1.543,1.543,0,0,1,.137-1.094l.684-.684A10.409,10.409,0,0,0,57.588-17.5a.7.7,0,0,0-.273-.957,13.654,13.654,0,0,1-1.367-1.23q.137-1.094,1.641-1.094l2.324-2.324v-.273A24.776,24.776,0,0,1,56.9-26.25,1.818,1.818,0,0,1,57.862-26.387Zm-6.016,1.23a2.835,2.835,0,0,1,1.777.82,12.98,12.98,0,0,1,2.051,2.461,32.055,32.055,0,0,1-1.914,5.2,2.142,2.142,0,0,1-1.914,1.094,5.128,5.128,0,0,0-2.324.547v.684a9.533,9.533,0,0,1,1.641-.41q2.187.137,2.188,1.777,0,.41-.547.547-.684.547-3.281,3.145A11.976,11.976,0,0,0,53.9-12.031q.41-.41.684.273Q53.213-8.34,46.1-4.648q-1.094.684-1.641,1.094a3.711,3.711,0,0,1-1.777.547,2.966,2.966,0,0,1-2.187-1.5q-.547-1.094-.137-1.641a4.11,4.11,0,0,0,.684-.137,6.337,6.337,0,0,0,1.23.137,17.039,17.039,0,0,0,3.418-2.734l-2.461-2.461q-.684-.41,0-.684a26.586,26.586,0,0,1,4.1-1.777v-.547l-1.5.41q-.684.273-.957,0a6.137,6.137,0,0,1-.957-1.5,8.273,8.273,0,0,0,.547-.684,10.514,10.514,0,0,1-2.051-3.145,8.831,8.831,0,0,1-.547-3.281q0-.957.273-1.094a6.162,6.162,0,0,1,1.777,1.641q.41.547,1.094,1.5h.684l1.777-.684q.684-2.187-.684-2.187l-.957.41q-.137-.137,0-.547a3.927,3.927,0,0,1,3.008-1.367A22.608,22.608,0,0,1,51.846-25.156Zm.137,1.777a6.131,6.131,0,0,0-2.461.273,2.493,2.493,0,0,1,.273,1.5q1.23,0,.957,1.094a3.148,3.148,0,0,1,.41,1.23q.957-.41.957-2.871A5.083,5.083,0,0,0,51.983-23.379ZM45.42-19.551A19.357,19.357,0,0,0,46.1-17.09,2.655,2.655,0,0,0,47.2-18.73,3.526,3.526,0,0,0,45.42-19.551Zm4.785,1.5q.41-.41.137-1.777a3.074,3.074,0,0,0-.82,1.5l-.137.41ZM45.83-10.664a6.837,6.837,0,0,1,.957.684q.547-.273.547-1.23A4.3,4.3,0,0,0,45.83-10.664ZM96.339-25.7q3.281.684,3.145,2.6-.273,2.324-.41,3.281,1.914,1.094,1.914,1.777,0,.273-1.094.82a5.969,5.969,0,0,0-1.641,1.367,11.949,11.949,0,0,0-.547,2.6v1.23a13.769,13.769,0,0,1,2.188-1.777l-.684,1.914a17.29,17.29,0,0,1-1.367,2.871q0,4.785.137,9.023a2.562,2.562,0,0,1-.273,1.367,1.312,1.312,0,0,1-.957.41q-1.777,0-4.375-3.418A26.5,26.5,0,0,1,90.05-4.922l-.82.137q-1.094.137-1.641-2.051.547-1.641,1.641-1.5,1.5.273,1.641.273,3.418-1.367,4.238-2.324l.137-2.6v-.957a2.346,2.346,0,0,0-.137-.957l-2.324.82a9.65,9.65,0,0,1-5.332-2.324v-.137q1.641-.137,3.691-.273,3.691-.957,4.375-1.641a6.2,6.2,0,0,0,.547-3.145,5.534,5.534,0,0,0-.684-2.734Q94.151-26.113,96.339-25.7Zm16.68,4.1a5.008,5.008,0,0,1,2.324,1.094q.547.547.137.82l-1.23,1.367q-2.188,2.461-4.512,5.332-3.828,5.2-4.238,5.605l.82.41q.137,0,.82.684a11.588,11.588,0,0,1,3.555-3.418,6.863,6.863,0,0,1,3.691-1.367,18.759,18.759,0,0,1,2.324.137,4.375,4.375,0,0,1,1.914.684,1.3,1.3,0,0,1,.547,1.094q0,1.367-3.691,5.332a6.613,6.613,0,0,0,1.777,1.367q1.777,1.094-.957,1.914a14.033,14.033,0,0,1-4.922-1.367q-2.734-1.5-.547-3.145a25.129,25.129,0,0,1,2.6-2.051,4.965,4.965,0,0,0,1.094-1.23l-.41-.273a16.118,16.118,0,0,0-5.2.82q-.41.137-1.367,1.914a14.956,14.956,0,0,0,.957,1.5,4.211,4.211,0,0,1,.684,1.641q-.137,1.367-1.777,1.094a3.4,3.4,0,0,1-1.777-2.051,13.026,13.026,0,0,0-.82-1.641l-.41-.82q-1.367,1.641-3.965,4.512a3,3,0,0,1-1.094-1.914,2.215,2.215,0,0,1,.41-1.367,9.228,9.228,0,0,1,1.777-1.914,59.52,59.52,0,0,0,7.793-10.527,5.659,5.659,0,0,1-3.965-1.5,15.622,15.622,0,0,0-1.5-1.367,4.2,4.2,0,0,1,2.324.137,31.69,31.69,0,0,0,4.238-.82A5.82,5.82,0,0,1,113.018-21.6ZM94.971-7.109,91.964-5.469a1.424,1.424,0,0,0,.137.82,6.864,6.864,0,0,0,2.734,1.641l.137-3.145Zm47.2-17.227a24.136,24.136,0,0,1,2.6,1.5q.547.41,0,1.367A19.654,19.654,0,0,1,141.9-17.91q-1.641,1.641-2.6,2.734a13.6,13.6,0,0,1,4.238,3.281q1.5,1.23,3.008,2.734a14.6,14.6,0,0,0,4.512,3.145,18.092,18.092,0,0,1,5.059,3.555.893.893,0,0,1-.273,1.094A15.972,15.972,0,0,1,149-3.145a28,28,0,0,1-6.152-6.016,22.35,22.35,0,0,0-3.145-3.281,5.385,5.385,0,0,0-2.187-.82q-1.23,1.23-3.691,3.555-2.187,2.187-7.383,6.426a.758.758,0,0,1-.957-.137,1.9,1.9,0,0,1-.547-1.914l.273-1.367q1.367-1.914,2.188-2.871.41-.137.41.273a9.02,9.02,0,0,0-.547,1.5l.137.41q.957-.684,1.914-1.5,9.57-9.844,11.074-13.125l-.273-.273a2.121,2.121,0,0,0-1.5-.41q-.137,0,0-.41a13.934,13.934,0,0,1,2.051-1.094A1.813,1.813,0,0,1,142.169-24.336Z" transform="translate(-2.051 27.07)" fill="#3a3a3a"/>
</svg>
