<svg xmlns="http://www.w3.org/2000/svg" width="149.403" height="30.156" viewBox="0 0 149.403 30.156">
  <path id="パス_786" data-name="パス 786" d="M16.816-26.387q1.23,0,3.418,2.051a1.818,1.818,0,0,1,.41,1.094q-.137.684-.273,1.23h3.008l2.324-.137a17.621,17.621,0,0,1,3.691.82,7.039,7.039,0,0,1,2.051,2.051,1.373,1.373,0,0,1,.273,1.777h-.684q-3.281.684-4.375.82a8.719,8.719,0,0,1-1.777-.82q-.137-.273.41-.547a4.716,4.716,0,0,0,1.5-1.23q.41-.273-.137-.82a1.818,1.818,0,0,0-1.094-.41,15.61,15.61,0,0,0-2.187-.137,32.048,32.048,0,0,0-4.238.273q-2.6.41-5.059.957-.957-.137-2.734-.273l-1.094.137a2.045,2.045,0,0,0-1.367,1.23,25.282,25.282,0,0,1-.82,3.008q-.684,1.23-1.23.957-2.6-1.5-2.187-2.734a16.744,16.744,0,0,0,.957-3.145,26.586,26.586,0,0,1,.82-3.418A3.486,3.486,0,0,1,8.34-22.559a.914.914,0,0,1,.137,1.23l.273.684q1.5-.273,2.734-.547l-.82-.41,1.777.137,1.094-.137q2.187-1.367,1.914-2.734l-1.094-1.641A7.742,7.742,0,0,1,16.816-26.387Zm4.238,9.57a3.151,3.151,0,0,1,2.188,1.094q.684.684.41.957a18.974,18.974,0,0,1-2.871,2.6,4.581,4.581,0,0,1,1.641.957.779.779,0,0,1-.273.82Q21.055-9.844,19-8.75a17.785,17.785,0,0,1-5.469,1.914q-1.367.273-1.367-.137a21.422,21.422,0,0,0,4.512-3.281q-.82-1.641-.273-2.187l1.641-1.641v-.137q0-.41-1.777-.41h-1.23l-.957.684a7.5,7.5,0,0,0,.41.957q1.5,2.324-.137,2.6-2.6-.957-3.555-5.742l.137-.547a2.668,2.668,0,0,1,1.777.957,2.142,2.142,0,0,0,.41.547,11.9,11.9,0,0,1,4.238-1.5q1.5-.137,2.734-.137Zm.82,9.023a16.983,16.983,0,0,1,2.871.957,2.683,2.683,0,0,1,1.23,1.23,1.246,1.246,0,0,1-.137.957q-.547.547-2.324,2.871l-.82.547A4.258,4.258,0,0,1,24.2-.137a1.312,1.312,0,0,1-.41.957,6.822,6.822,0,0,0-.82.137,7.682,7.682,0,0,1-1.5.137H19.688A5.688,5.688,0,0,1,17.5.82,2.049,2.049,0,0,1,16.27-.41q-.273-.684,0-.957l.957-.82q1.367-.957,2.6-1.914a5.975,5.975,0,0,0,1.367-1.23.646.646,0,0,0-.547-.684,60.492,60.492,0,0,0-6.152,1.367q-.82,0-.957,1.641A14.584,14.584,0,0,1,14.9-.41q0,.82-1.094.684-2.051,0-3.691-2.871Q8.2-5.605,8.34-6.016q.41-.957,2.188.41a10.864,10.864,0,0,0,1.641,1.367A11.268,11.268,0,0,1,17.09-6.562,15.448,15.448,0,0,0,20.918-7.93,1.15,1.15,0,0,1,21.875-7.793ZM59.229-25.43a10.406,10.406,0,0,1,2.324,1.914q.137.137-.273.82-.82.82-1.914,1.777a4.073,4.073,0,0,1-.41.547l.41.684q.41.137-.137.684a18.852,18.852,0,0,1-3.281,1.914,11.24,11.24,0,0,1-3.418.41q-.41-.137-1.367-.547l-.82,1.094q-3.008,4.648-5.469,9.023Q41.865-2.6,38.858-2.461a5.432,5.432,0,0,0-.82-.684.557.557,0,0,1-.137-.41,5.6,5.6,0,0,1,1.5-1.5,45.524,45.524,0,0,0,9.434-12.988q1.094-2.461,1.5-3.281A3.579,3.579,0,0,1,51.709-19q.957,0,4.375-2.871l.82-.684-.137-.137q-1.23.273-2.734.547a18.373,18.373,0,0,1-3.281.273q-2.6-.82-2.6-1.094,2.051-.547,4.648-1.094a13.933,13.933,0,0,1,3.691-.684A11.187,11.187,0,0,0,59.229-25.43Zm-1.367,9.3a1.775,1.775,0,0,1,1.5.547q.547.82.273,1.23a3.286,3.286,0,0,1-1.367.957,7.271,7.271,0,0,0-2.051,1.367q2.187.41,2.6,1.23.41.41-.273.82a6.137,6.137,0,0,0-1.5.957,7.787,7.787,0,0,0,2.6.684q1.367.273,1.641.82a8.528,8.528,0,0,1-3.008,1.914,22.6,22.6,0,0,1-2.461.957q.41,1.23,2.6,2.051a10.12,10.12,0,0,0,3.145.41q1.367,0,2.734-.137,1.094,0,1.367-1.641a21.689,21.689,0,0,0,.273-3.281q-.137-.547,0-.684a16.672,16.672,0,0,1,2.188,2.324,7.081,7.081,0,0,1,1.094,3.691l-.273.957A3.9,3.9,0,0,1,66.885.137a5.752,5.752,0,0,0-1.367.137H61.143A8.8,8.8,0,0,1,57.725-.41q-3.555-1.5-4.1-3.418l-3.691,1.5-1.094.273q-1.094.273-1.094-1.5a33.681,33.681,0,0,1,3.418-2.051,4.654,4.654,0,0,0,1.641-1.5q.547-.684.273-.684-.684.137-1.777.273l-1.23-.137q-.82-.41.137-.957a13.762,13.762,0,0,0,3.281-2.871v-1.367q-1.914.137-2.324-.547A10.819,10.819,0,0,1,57.862-16.133ZM55.537-7.52v.684a3.5,3.5,0,0,0,1.641-.684,2,2,0,0,0-.684-.957ZM51.026-4.785l2.188-1.094v-.547A3.706,3.706,0,0,0,51.026-4.785Zm46.817-20.1a3.212,3.212,0,0,1,1.914.957,1.155,1.155,0,0,1,0,1.641A15.51,15.51,0,0,1,95.108-19a17.423,17.423,0,0,1-2.324,1.094l1.5,1.5a2.433,2.433,0,0,1,.273,1.641l-.273,2.734a1.47,1.47,0,0,1,.82-.273q0-2.324.137-3.691-.82-1.23.547-1.23a2.353,2.353,0,0,1,1.5.547,1.3,1.3,0,0,1,.547,1.094A18.848,18.848,0,0,1,97.3-13.4l1.094-.41a22.98,22.98,0,0,1,.547-4.238H97.569l-1.777.137a.242.242,0,0,1-.273-.273,4.206,4.206,0,0,1,3.008-1.641,3.912,3.912,0,0,1,2.051.684,1.955,1.955,0,0,1,.82,1.5l-.684,2.871,1.094-.547a3.719,3.719,0,0,1-1.094,1.777v6.426q.137,2.734.273,5.059a4.229,4.229,0,0,1-.41,1.914l-.684.684a1.777,1.777,0,0,1-1.367,0,10.254,10.254,0,0,1-3.008-2.6,14.724,14.724,0,0,1-1.5-4.238l.137-.137q.957,1.094,2.461,2.734l1.23.684q.137-1.5.273-2.6V-9.57a9.487,9.487,0,0,1,.137-2.734l-1.777,1.094a5.751,5.751,0,0,1,1.094,3.555q-.137,1.914-1.23,1.5a10.93,10.93,0,0,1-1.367-1.5,2.237,2.237,0,0,1-.273-1.23q.137-.547.273-1.367a5.432,5.432,0,0,0-.82.684A12.588,12.588,0,0,1,90.6-2.461a7.01,7.01,0,0,1-3.008,1.23q-.137,0-.137-.41Q88.546-3.008,89.5-4.375a10.974,10.974,0,0,0,1.641-4.238,7.026,7.026,0,0,1-3.418.41q-1.367-1.094-1.23-2.051.273-1.23,1.23-1.367H88q1.23,1.23,1.641.957.684-.137,1.641-.41a21.314,21.314,0,0,0,.273-4.1,16.194,16.194,0,0,0-.684-3.555q-.273-.547.684-.684a16.714,16.714,0,0,0,2.188-1.23,6.007,6.007,0,0,0,2.051-1.914,2.006,2.006,0,0,0-.547-1.094q-.41-.41.137-.684A2.679,2.679,0,0,1,97.842-24.883Zm11.484.273a3.646,3.646,0,0,1,3.008,1.367,2.19,2.19,0,0,1,.273,1.914l-1.367.137a6.5,6.5,0,0,1-1.777-.273,4.239,4.239,0,0,1-.957-.273,10.93,10.93,0,0,0-1.5-1.367q-1.094-.41-.41-.684l1.367-.684Zm3.418,5.2q2.6,0,2.324,1.367,0,.273-2.324.957a11.535,11.535,0,0,0-2.461,2.324,3.808,3.808,0,0,1,3.145,2.324q.137.41-.684,1.777a11.573,11.573,0,0,0-.957,3.418q0,4.512,3.691,4.238a.936.936,0,0,0,.684-.82,9.373,9.373,0,0,0-.137-1.777,8.583,8.583,0,0,0-.547-1.641q-.137-.137.273,0a11.224,11.224,0,0,1,2.734,2.871,3.808,3.808,0,0,1,.82,2.324q0,1.367-4.1,1.641l-2.324-.273a4.571,4.571,0,0,1-3.281-2.6,5.965,5.965,0,0,1-.684-3.145q.41-3.418.82-5.469-.137-.41-.957.41a11.911,11.911,0,0,0-1.5,2.461q-2.461,5.469-3.828,6.7a.779.779,0,0,1-.82-.273,2.238,2.238,0,0,1-.684-1.641,15.188,15.188,0,0,1,1.5-2.734q1.367-2.324,2.324-3.965-.273-.41-.547-.137a2.62,2.62,0,0,1,1.094-.684L109.053-16l-2.6.273q-1.777.137-2.871.273-.547-.137-.547-.547a15.883,15.883,0,0,1,4.922-2.187A17.054,17.054,0,0,1,112.745-19.414Zm29.7-8.066a4.693,4.693,0,0,1,2.324,1.914.877.877,0,0,1-.41.957,25.458,25.458,0,0,1-6.016,1.094,4.453,4.453,0,0,1,2.051,2.051l.273.82a7.44,7.44,0,0,1,3.555-.957,3.614,3.614,0,0,1,3.008,1.641q.82.547,0,1.23-.957.684-2.461,1.777a30.527,30.527,0,0,1-4.375,2.734l5.469.137,2.188-.137a9.183,9.183,0,0,1,5.879,2.461,2.222,2.222,0,0,1,0,1.094,1.682,1.682,0,0,1-.684.273q-8.066-.957-12.3-1.094a4.8,4.8,0,0,0-.137,1.367q0,2.324.137,4.1a22.187,22.187,0,0,1-1.367,7.93q-.41.684-.547.684l-.273-.684a23.083,23.083,0,0,1-1.641-7.383q-.137-2.187-.273-4.238v-1.5a61.776,61.776,0,0,0-7.109,1.367,39.1,39.1,0,0,1-4.1.82q-1.5,0-1.641-1.641,0-.684.957-.684l1.23.137,3.965-1.094q2.187-.547,3.828-.82,2.461-1.641,3.281-2.324L137.384-19a27.437,27.437,0,0,0-6.016,4.238q-1.641-.137-2.187-2.187-.273-1.094,2.051-1.914,1.641-.684,2.6-1.094a6.187,6.187,0,0,0,1.094-1.094A4.081,4.081,0,0,1,133.829-19a.54.54,0,0,0-.273.82,23.675,23.675,0,0,1,3.828-1.367v-1.5a4.9,4.9,0,0,0-1.367-2.734,10.789,10.789,0,0,1-4.238-1.914,3.03,3.03,0,0,1,.957.137q6.7-.41,8.2-1.5Q141.9-27.754,142.442-27.48ZM140.8-20.1v2.324a4.761,4.761,0,0,0,1.777-1.5,5.3,5.3,0,0,1-.273-.684Z" transform="translate(-4.593 27.559)" fill="#3a3a3a"/>
</svg>
