<svg xmlns="http://www.w3.org/2000/svg" width="144.197" height="28.069" viewBox="0 0 144.197 28.069">
  <path id="パス_773" data-name="パス 773" d="M8.836-23.194v7.541h6.646a7.407,7.407,0,0,0,2.971-.457A3.127,3.127,0,0,0,20.2-19.271q0-2.552-1.695-3.428a6.405,6.405,0,0,0-2.856-.5Zm8.036-4.875a12.827,12.827,0,0,1,4.542.724,7.1,7.1,0,0,1,2.695,1.961,8.691,8.691,0,0,1,1.447,2.361,7.7,7.7,0,0,1,.533,2.952,8.41,8.41,0,0,1-1.009,3.932,5.641,5.641,0,0,1-3.333,2.733A5.241,5.241,0,0,1,24.5-11.188,9.235,9.235,0,0,1,25.308-6.8v1.885A14.42,14.42,0,0,0,25.46-2.3,2.343,2.343,0,0,0,26.527-.7V0H20.071Q19.8-.933,19.69-1.5a13.822,13.822,0,0,1-.248-2.418L19.4-6.532q-.038-2.685-.981-3.58t-3.532-.9H8.836V0H3.1V-28.069Zm36.19,4.97H38.209v5.96H51.843v4.875H38.209v7.217H53.748V0H32.477V-28.069H53.062Zm22.86-4.97h6.094L72.437,0H66.9L57.412-28.069h6.265L69.771-6.76ZM92.041,0H86.214V-28.069h5.827ZM115.11-28.069H121.2L111.625,0h-5.542L96.6-28.069h6.265L108.959-6.76Zm31.505,4.97H131.762v5.96H145.4v4.875H131.762v7.217H147.3V0H126.03V-28.069h20.585Z" transform="translate(-3.104 28.069)" fill="#fff"/>
</svg>
